<svg xmlns="http://www.w3.org/2000/svg" xmlns:xlink="http://www.w3.org/1999/xlink" width="2000" zoomAndPan="magnify" viewBox="0 0 1500 1499.999933" height="2000" preserveAspectRatio="xMidYMid meet" version="1.0"><defs><g/><clipPath id="9c234afb14"><path d="M 676.492188 533.78125 L 1326.765625 533.78125 L 1326.765625 813.5625 L 676.492188 813.5625 Z M 676.492188 533.78125 " clip-rule="nonzero"/></clipPath><clipPath id="8afe26a7f8"><path d="M 848.300781 533.78125 L 1320.15625 533.78125 C 1322.304688 533.78125 1324.289062 534.933594 1325.355469 536.800781 C 1326.417969 538.667969 1326.402344 540.964844 1325.304688 542.816406 L 1170.324219 804.527344 C 1167.007812 810.128906 1160.980469 813.5625 1154.472656 813.5625 L 682.621094 813.5625 C 680.46875 813.5625 678.484375 812.410156 677.417969 810.539062 C 676.355469 808.671875 676.375 806.378906 677.46875 804.527344 L 832.453125 542.816406 C 835.769531 537.214844 841.792969 533.78125 848.300781 533.78125 Z M 848.300781 533.78125 " clip-rule="nonzero"/></clipPath><clipPath id="a57336eed3"><path d="M 0.492188 0.78125 L 650.480469 0.78125 L 650.480469 280.5625 L 0.492188 280.5625 Z M 0.492188 0.78125 " clip-rule="nonzero"/></clipPath><clipPath id="e4a7ed732e"><path d="M 172.300781 0.78125 L 644.15625 0.78125 C 646.304688 0.78125 648.289062 1.933594 649.355469 3.800781 C 650.417969 5.667969 650.402344 7.964844 649.304688 9.816406 L 494.324219 271.527344 C 491.007812 277.128906 484.980469 280.5625 478.472656 280.5625 L 6.621094 280.5625 C 4.46875 280.5625 2.484375 279.410156 1.417969 277.539062 C 0.355469 275.671875 0.375 273.378906 1.46875 271.527344 L 156.453125 9.816406 C 159.769531 4.214844 165.792969 0.78125 172.300781 0.78125 Z M 172.300781 0.78125 " clip-rule="nonzero"/></clipPath><clipPath id="ec6c547109"><rect x="0" width="651" y="0" height="281"/></clipPath><clipPath id="31ddc8ef60"><rect x="0" width="491" y="0" height="284"/></clipPath><clipPath id="a5e2dbdd1c"><rect x="0" width="460" y="0" height="284"/></clipPath><clipPath id="47e428462c"><rect x="0" width="431" y="0" height="133"/></clipPath></defs><rect x="-150" width="1800" fill="#ffffff" y="-149.999993" height="1799.99992" fill-opacity="1"/><rect x="-150" width="1800" fill="#000000" y="-149.999993" height="1799.99992" fill-opacity="1"/><g clip-path="url(#9c234afb14)"><g clip-path="url(#8afe26a7f8)"><g transform="matrix(1, 0, 0, 1, 676, 533)"><g clip-path="url(#ec6c547109)"><g clip-path="url(#a57336eed3)"><g clip-path="url(#e4a7ed732e)"><path fill="#ffffff" d="M -3.878906 0.78125 L 655.136719 0.78125 L 655.136719 280.5625 L -3.878906 280.5625 Z M -3.878906 0.78125 " fill-opacity="1" fill-rule="nonzero"/></g></g></g></g></g></g><g transform="matrix(1, 0, 0, 1, 169, 532)"><g clip-path="url(#31ddc8ef60)"><g fill="#faf6f5" fill-opacity="1"><g transform="translate(0.344775, 234.434654)"><g><path d="M 90.25 -35.109375 L 98.25 -6.828125 C 88.351562 -1.015625 77.046875 1.890625 64.328125 1.890625 C 51.753906 1.890625 41.582031 -1.601562 33.8125 -8.59375 C 26.039062 -15.582031 22.15625 -25.519531 22.15625 -38.40625 L 22.15625 -94.484375 L 4.484375 -94.484375 L 4.484375 -121.109375 L 22.15625 -121.109375 L 22.15625 -156.453125 L 62.671875 -156.453125 L 62.671875 -121.34375 L 95.90625 -121.34375 L 95.90625 -94.484375 L 62.671875 -94.484375 L 62.671875 -44.765625 C 62.671875 -39.898438 63.648438 -36.328125 65.609375 -34.046875 C 67.578125 -31.765625 70.523438 -30.703125 74.453125 -30.859375 C 78.222656 -30.859375 83.488281 -32.273438 90.25 -35.109375 Z M 90.25 -35.109375 "/></g></g></g><g fill="#faf6f5" fill-opacity="1"><g transform="translate(89.405422, 234.434654)"><g><path d="M 71.859375 -128.421875 C 93.859375 -128.421875 110.394531 -121.664062 121.46875 -108.15625 C 132.539062 -94.644531 137.367188 -76.109375 135.953125 -52.546875 L 46.65625 -52.546875 C 48.695312 -45.003906 52.304688 -39.191406 57.484375 -35.109375 C 62.671875 -31.023438 69.035156 -28.984375 76.578125 -28.984375 C 88.203125 -28.984375 98.332031 -33.300781 106.96875 -41.9375 L 128.421875 -20.96875 C 114.753906 -6.050781 96.296875 1.40625 73.046875 1.40625 C 52.460938 1.40625 36.082031 -4.484375 23.90625 -16.265625 C 11.738281 -28.046875 5.65625 -43.671875 5.65625 -63.140625 C 5.65625 -82.773438 11.738281 -98.5625 23.90625 -110.5 C 36.082031 -122.445312 52.066406 -128.421875 71.859375 -128.421875 Z M 45.953125 -74.453125 L 96.84375 -74.453125 C 96.84375 -82.148438 94.601562 -88.351562 90.125 -93.0625 C 85.644531 -97.78125 79.71875 -100.140625 72.34375 -100.140625 C 65.425781 -100.140625 59.609375 -97.820312 54.890625 -93.1875 C 50.179688 -88.550781 47.203125 -82.304688 45.953125 -74.453125 Z M 45.953125 -74.453125 "/></g></g></g><g fill="#faf6f5" fill-opacity="1"><g transform="translate(217.813594, 234.434654)"><g><path d="M 71.625 -128.421875 C 84.195312 -128.421875 95.390625 -125.945312 105.203125 -121 C 115.023438 -116.050781 122.6875 -109.019531 128.1875 -99.90625 L 98.96875 -82.234375 C 92.675781 -91.023438 84.113281 -95.421875 73.28125 -95.421875 C 65.425781 -95.421875 59.023438 -92.472656 54.078125 -86.578125 C 49.128906 -80.691406 46.65625 -72.960938 46.65625 -63.390625 C 46.65625 -53.648438 49.085938 -45.832031 53.953125 -39.9375 C 58.828125 -34.050781 65.269531 -31.109375 73.28125 -31.109375 C 85.21875 -31.109375 93.859375 -35.894531 99.203125 -45.46875 L 128.890625 -28.046875 C 123.703125 -18.617188 116.117188 -11.351562 106.140625 -6.25 C 96.171875 -1.144531 84.507812 1.40625 71.15625 1.40625 C 51.519531 1.40625 35.691406 -4.519531 23.671875 -16.375 C 11.660156 -28.238281 5.65625 -43.828125 5.65625 -63.140625 C 5.65625 -82.617188 11.738281 -98.367188 23.90625 -110.390625 C 36.082031 -122.410156 51.988281 -128.421875 71.625 -128.421875 Z M 71.625 -128.421875 "/></g></g></g><g fill="#faf6f5" fill-opacity="1"><g transform="translate(336.797169, 234.434654)"><g><path d="M 100.84375 -128.890625 C 114.820312 -128.890625 126.050781 -124.453125 134.53125 -115.578125 C 143.019531 -106.703125 147.265625 -94.878906 147.265625 -80.109375 L 147.265625 0 L 106.5 0 L 106.5 -68.796875 C 106.5 -76.179688 104.492188 -82.035156 100.484375 -86.359375 C 96.484375 -90.679688 91.03125 -92.84375 84.125 -92.84375 C 76.269531 -92.84375 69.984375 -90.015625 65.265625 -84.359375 C 60.554688 -78.703125 58.203125 -71.472656 58.203125 -62.671875 L 58.203125 0 L 17.4375 0 L 17.4375 -174.828125 L 58.203125 -174.828125 L 58.203125 -106.03125 C 67.148438 -120.957031 81.363281 -128.578125 100.84375 -128.890625 Z M 100.84375 -128.890625 "/></g></g></g></g></g><g transform="matrix(1, 0, 0, 1, 738, 532)"><g clip-path="url(#a5e2dbdd1c)"><g fill="#000000" fill-opacity="1"><g transform="translate(0.34081, 234.478604)"><g><path d="M 96.125 -128.40625 C 114.03125 -128.40625 128.441406 -122.394531 139.359375 -110.375 C 150.273438 -98.363281 155.734375 -82.539062 155.734375 -62.90625 C 155.734375 -43.582031 150.390625 -28.03125 139.703125 -16.25 C 129.023438 -4.476562 114.8125 1.40625 97.0625 1.40625 C 80.414062 1.40625 67.457031 -4.71875 58.1875 -16.96875 L 58.1875 0 L 17.4375 0 L 17.4375 -174.8125 L 58.1875 -174.8125 L 58.1875 -110.265625 C 67.613281 -122.359375 80.257812 -128.40625 96.125 -128.40625 Z M 86.234375 -30.859375 C 94.710938 -30.859375 101.582031 -33.957031 106.84375 -40.15625 C 112.101562 -46.363281 114.734375 -54.335938 114.734375 -64.078125 C 114.734375 -73.816406 112.101562 -81.75 106.84375 -87.875 C 101.582031 -94 94.710938 -97.0625 86.234375 -97.0625 C 78.054688 -97.0625 71.335938 -94 66.078125 -87.875 C 60.816406 -81.75 58.1875 -73.816406 58.1875 -64.078125 C 58.1875 -54.179688 60.773438 -46.171875 65.953125 -40.046875 C 71.140625 -33.921875 77.898438 -30.859375 86.234375 -30.859375 Z M 86.234375 -30.859375 "/></g></g></g><g fill="#000000" fill-opacity="1"><g transform="translate(148.284977, 234.478604)"><g><path d="M 75.15625 -128.40625 C 95.882812 -128.40625 112.609375 -122.472656 125.328125 -110.609375 C 138.054688 -98.753906 144.421875 -83.085938 144.421875 -63.609375 C 144.421875 -44.128906 138.054688 -28.421875 125.328125 -16.484375 C 112.609375 -4.554688 95.882812 1.40625 75.15625 1.40625 C 54.269531 1.40625 37.460938 -4.554688 24.734375 -16.484375 C 12.015625 -28.421875 5.65625 -44.128906 5.65625 -63.609375 C 5.65625 -83.085938 12.015625 -98.753906 24.734375 -110.609375 C 37.460938 -122.472656 54.269531 -128.40625 75.15625 -128.40625 Z M 75.15625 -96.125 C 66.675781 -96.125 59.800781 -93.0625 54.53125 -86.9375 C 49.269531 -80.8125 46.640625 -72.878906 46.640625 -63.140625 C 46.640625 -53.242188 49.269531 -45.269531 54.53125 -39.21875 C 59.800781 -33.175781 66.675781 -30.15625 75.15625 -30.15625 C 83.476562 -30.15625 90.269531 -33.175781 95.53125 -39.21875 C 100.789062 -45.269531 103.421875 -53.242188 103.421875 -63.140625 C 103.421875 -72.878906 100.789062 -80.8125 95.53125 -86.9375 C 90.269531 -93.0625 83.476562 -96.125 75.15625 -96.125 Z M 75.15625 -96.125 "/></g></g></g><g fill="#000000" fill-opacity="1"><g transform="translate(284.921175, 234.478604)"><g><path d="M 138.296875 -126.984375 L 83.40625 13.1875 C 73.976562 36.125 57.640625 47.59375 34.390625 47.59375 C 20.890625 47.59375 8.5625 43.269531 -2.59375 34.625 L 14.375 6.828125 C 20.03125 11.390625 25.601562 13.671875 31.09375 13.671875 C 38.320312 13.671875 43.585938 10.289062 46.890625 3.53125 L 49.953125 -2.828125 L -2.828125 -126.984375 L 39.109375 -126.984375 L 70.203125 -42.640625 L 97.765625 -126.984375 Z M 138.296875 -126.984375 "/></g></g></g><g fill="#000000" fill-opacity="1"><g transform="translate(408.129248, 234.478604)"><g><path d="M 14.375 -32.03125 C 17.988281 -35.644531 22.695312 -37.453125 28.5 -37.453125 C 34.3125 -37.453125 39.0625 -35.644531 42.75 -32.03125 C 46.445312 -28.425781 48.296875 -23.71875 48.296875 -17.90625 C 48.296875 -12.09375 46.445312 -7.335938 42.75 -3.640625 C 39.0625 0.046875 34.3125 1.890625 28.5 1.890625 C 22.695312 1.890625 17.988281 0.046875 14.375 -3.640625 C 10.757812 -7.335938 8.953125 -12.09375 8.953125 -17.90625 C 8.953125 -23.71875 10.757812 -28.425781 14.375 -32.03125 Z M 14.375 -32.03125 "/></g></g></g></g></g><g transform="matrix(1, 0, 0, 1, 514, 834)"><g clip-path="url(#47e428462c)"><g fill="#d68e1a" fill-opacity="1"><g transform="translate(0.89204, 105.148883)"><g><path d="M 33.328125 0.65625 C 27.679688 0.65625 22.269531 -0.25 17.09375 -2.0625 C 11.925781 -3.875 7.929688 -6.265625 5.109375 -9.234375 L 8.25 -15.421875 C 11 -12.671875 14.65625 -10.441406 19.21875 -8.734375 C 23.78125 -7.035156 28.484375 -6.1875 33.328125 -6.1875 C 40.140625 -6.1875 45.242188 -7.4375 48.640625 -9.9375 C 52.046875 -12.4375 53.75 -15.675781 53.75 -19.65625 C 53.75 -22.695312 52.820312 -25.117188 50.96875 -26.921875 C 49.125 -28.734375 46.863281 -30.128906 44.1875 -31.109375 C 41.507812 -32.085938 37.78125 -33.15625 33 -34.3125 C 27.289062 -35.757812 22.734375 -37.148438 19.328125 -38.484375 C 15.921875 -39.828125 13.003906 -41.875 10.578125 -44.625 C 8.160156 -47.375 6.953125 -51.101562 6.953125 -55.8125 C 6.953125 -59.644531 7.960938 -63.132812 9.984375 -66.28125 C 12.015625 -69.4375 15.128906 -71.953125 19.328125 -73.828125 C 23.523438 -75.710938 28.738281 -76.65625 34.96875 -76.65625 C 39.3125 -76.65625 43.5625 -76.054688 47.71875 -74.859375 C 51.882812 -73.671875 55.488281 -72.023438 58.53125 -69.921875 L 55.8125 -63.515625 C 52.625 -65.617188 49.21875 -67.191406 45.59375 -68.234375 C 41.976562 -69.285156 38.4375 -69.8125 34.96875 -69.8125 C 28.300781 -69.8125 23.285156 -68.523438 19.921875 -65.953125 C 16.554688 -63.390625 14.875 -60.082031 14.875 -56.03125 C 14.875 -52.988281 15.796875 -50.539062 17.640625 -48.6875 C 19.484375 -46.84375 21.796875 -45.429688 24.578125 -44.453125 C 27.367188 -43.484375 31.117188 -42.421875 35.828125 -41.265625 C 41.398438 -39.890625 45.90625 -38.53125 49.34375 -37.1875 C 52.78125 -35.84375 55.691406 -33.8125 58.078125 -31.09375 C 60.472656 -28.382812 61.671875 -24.71875 61.671875 -20.09375 C 61.671875 -16.25 60.640625 -12.753906 58.578125 -9.609375 C 56.515625 -6.460938 53.347656 -3.960938 49.078125 -2.109375 C 44.804688 -0.265625 39.554688 0.65625 33.328125 0.65625 Z M 33.328125 0.65625 "/></g></g></g><g fill="#d68e1a" fill-opacity="1"><g transform="translate(67.646874, 105.148883)"><g><path d="M 27.140625 -69.0625 L 0.4375 -69.0625 L 0.4375 -76 L 61.890625 -76 L 61.890625 -69.0625 L 35.171875 -69.0625 L 35.171875 0 L 27.140625 0 Z M 27.140625 -69.0625 "/></g></g></g><g fill="#d68e1a" fill-opacity="1"><g transform="translate(129.951364, 105.148883)"><g><path d="M 43 0.65625 C 33.15625 0.65625 25.476562 -2.164062 19.96875 -7.8125 C 14.46875 -13.457031 11.71875 -21.675781 11.71875 -32.46875 L 11.71875 -76 L 19.765625 -76 L 19.765625 -32.796875 C 19.765625 -23.960938 21.753906 -17.375 25.734375 -13.03125 C 29.710938 -8.6875 35.46875 -6.515625 43 -6.515625 C 50.59375 -6.515625 56.378906 -8.6875 60.359375 -13.03125 C 64.347656 -17.375 66.34375 -23.960938 66.34375 -32.796875 L 66.34375 -76 L 74.15625 -76 L 74.15625 -32.46875 C 74.15625 -21.675781 71.421875 -13.457031 65.953125 -7.8125 C 60.492188 -2.164062 52.84375 0.65625 43 0.65625 Z M 43 0.65625 "/></g></g></g><g fill="#d68e1a" fill-opacity="1"><g transform="translate(215.918548, 105.148883)"><g><path d="M 12.375 -76 L 43.328125 -76 C 51.359375 -76 58.445312 -74.390625 64.59375 -71.171875 C 70.75 -67.953125 75.53125 -63.460938 78.9375 -57.703125 C 82.34375 -51.953125 84.046875 -45.382812 84.046875 -38 C 84.046875 -30.613281 82.34375 -24.039062 78.9375 -18.28125 C 75.53125 -12.53125 70.75 -8.046875 64.59375 -4.828125 C 58.445312 -1.609375 51.359375 0 43.328125 0 L 12.375 0 Z M 42.890625 -6.953125 C 49.546875 -6.953125 55.367188 -8.269531 60.359375 -10.90625 C 65.359375 -13.550781 69.234375 -17.207031 71.984375 -21.875 C 74.734375 -26.539062 76.109375 -31.914062 76.109375 -38 C 76.109375 -44.082031 74.734375 -49.457031 71.984375 -54.125 C 69.234375 -58.789062 65.359375 -62.445312 60.359375 -65.09375 C 55.367188 -67.738281 49.546875 -69.0625 42.890625 -69.0625 L 20.40625 -69.0625 L 20.40625 -6.953125 Z M 42.890625 -6.953125 "/></g></g></g><g fill="#d68e1a" fill-opacity="1"><g transform="translate(305.57625, 105.148883)"><g><path d="M 12.375 -76 L 20.40625 -76 L 20.40625 0 L 12.375 0 Z M 12.375 -76 "/></g></g></g><g fill="#d68e1a" fill-opacity="1"><g transform="translate(338.356657, 105.148883)"><g><path d="M 45.609375 0.65625 C 38.078125 0.65625 31.253906 -1.023438 25.140625 -4.390625 C 19.023438 -7.765625 14.242188 -12.378906 10.796875 -18.234375 C 7.359375 -24.097656 5.640625 -30.6875 5.640625 -38 C 5.640625 -45.3125 7.359375 -51.898438 10.796875 -57.765625 C 14.242188 -63.628906 19.023438 -68.242188 25.140625 -71.609375 C 31.253906 -74.972656 38.078125 -76.65625 45.609375 -76.65625 C 53.128906 -76.65625 59.910156 -74.988281 65.953125 -71.65625 C 72.003906 -68.332031 76.765625 -63.71875 80.234375 -57.8125 C 83.710938 -51.914062 85.453125 -45.3125 85.453125 -38 C 85.453125 -30.6875 83.710938 -24.082031 80.234375 -18.1875 C 76.765625 -12.289062 72.003906 -7.675781 65.953125 -4.34375 C 59.910156 -1.007812 53.128906 0.65625 45.609375 0.65625 Z M 45.609375 -6.515625 C 51.609375 -6.515625 57.035156 -7.867188 61.890625 -10.578125 C 66.742188 -13.296875 70.546875 -17.0625 73.296875 -21.875 C 76.046875 -26.6875 77.421875 -32.0625 77.421875 -38 C 77.421875 -43.9375 76.046875 -49.3125 73.296875 -54.125 C 70.546875 -58.9375 66.742188 -62.695312 61.890625 -65.40625 C 57.035156 -68.125 51.609375 -69.484375 45.609375 -69.484375 C 39.597656 -69.484375 34.148438 -68.125 29.265625 -65.40625 C 24.378906 -62.695312 20.539062 -58.9375 17.75 -54.125 C 14.96875 -49.3125 13.578125 -43.9375 13.578125 -38 C 13.578125 -32.0625 14.96875 -26.6875 17.75 -21.875 C 20.539062 -17.0625 24.378906 -13.296875 29.265625 -10.578125 C 34.148438 -7.867188 39.597656 -6.515625 45.609375 -6.515625 Z M 45.609375 -6.515625 "/></g></g></g></g></g></svg>